<svg version="1.1" id="Layer_1" xmlns="http://www.w3.org/2000/svg" xmlns:xlink="http://www.w3.org/1999/xlink" x="0px" y="0px"
	 width="100%" viewBox="0 0 1024 1008" enable-background="new 0 0 1024 1008" xml:space="preserve">
<path fill="#000000" opacity="1.000000" stroke="none" 
	d="
M148.909851,676.981934 
	C131.829330,640.901123 119.985306,603.549316 114.135422,564.441589 
	C109.416817,532.896790 108.454781,501.233856 111.431824,469.349030 
	C114.987076,431.271393 123.648926,394.536011 137.766724,359.095764 
	C157.419815,309.760162 185.705200,265.891785 222.499695,227.572784 
	C256.989716,191.653748 296.336151,162.309097 341.327759,140.789062 
	C380.377594,122.111053 421.343109,109.775688 464.390289,104.655807 
	C521.913269,97.814247 578.390625,102.643471 633.629517,120.316139 
	C689.042358,138.044510 738.314392,166.596680 781.371033,205.653061 
	C848.381348,266.437561 891.598694,340.935242 909.447571,429.861542 
	C916.267090,463.837433 918.784729,498.168427 916.008728,532.678040 
	C909.455383,614.146423 881.652283,687.525146 830.993408,751.978760 
	C790.747437,803.183838 741.148193,842.713867 682.294495,870.478760 
	C644.251953,888.425659 604.349304,900.328918 562.494080,905.415833 
	C479.313873,915.525146 400.489777,901.085510 326.665100,861.782166 
	C247.602142,819.690125 188.482437,757.859253 148.909851,676.981934 
M188.342575,281.804779 
	C181.839676,291.286926 175.644241,300.960693 169.897583,310.925018 
	C140.222595,362.379486 123.297607,417.807251 118.413185,476.921417 
	C116.655243,498.197113 117.041191,519.472473 119.123192,540.762817 
	C121.690697,567.017944 126.638618,592.778748 134.407349,617.939148 
	C159.180481,698.171326 204.633087,764.385864 270.812531,816.005432 
	C349.668396,877.512695 439.132355,906.032349 539.196228,899.935608 
	C592.451111,896.690857 642.806763,882.401001 690.193359,858.024841 
	C767.209534,818.406677 826.099060,760.270386 865.689087,683.183960 
	C898.663513,618.978943 912.990967,550.742065 907.982300,478.482697 
	C905.347412,440.468811 897.356018,403.731476 883.835266,368.224731 
	C857.039001,297.855804 813.717163,239.467331 754.309021,193.342377 
	C669.530701,127.519844 573.500793,100.582703 466.785034,112.270042 
	C423.001221,117.065163 381.424011,129.672363 341.993652,149.241623 
	C279.684662,180.165497 228.787643,224.396545 188.342575,281.804779 
z"/>
<path fill="#000000" opacity="1.000000" stroke="none" 
	d="
M578.479126,533.927246 
	C578.225769,531.145569 576.419922,529.935120 574.653870,528.635193 
	C554.937622,514.122498 544.782593,494.258301 542.136047,470.248077 
	C541.938721,468.457794 542.324707,466.603851 542.432678,464.779114 
	C542.894592,456.970551 541.227234,449.697449 539.436768,442.009827 
	C536.805969,430.713837 532.987793,419.040497 534.729614,406.973419 
	C535.514221,401.537842 536.832947,396.175720 537.525696,390.731445 
	C538.348999,384.261383 541.484497,379.401123 547.076782,376.332703 
	C552.868347,373.154999 557.585815,368.986725 561.880310,363.945679 
	C567.339294,357.537689 575.563354,356.061249 583.223450,353.836304 
	C599.963379,348.974030 616.620728,351.409180 632.284973,357.148407 
	C648.623779,363.134766 660.687500,375.596069 670.146362,390.044342 
	C675.419983,398.099731 679.591492,406.895203 684.021606,415.479980 
	C691.286194,429.557404 690.471985,443.036865 680.486938,455.650330 
	C679.350159,457.086395 678.338501,458.666809 677.004822,459.893158 
	C673.252258,463.343597 673.446289,466.080261 676.751953,470.273865 
	C692.052307,489.684235 681.165527,517.270752 656.868652,521.410278 
	C655.550293,521.634949 654.222473,521.755676 652.758057,523.046326 
	C653.588013,527.625549 657.366638,529.843750 660.958008,532.020752 
	C669.833069,537.400635 679.541321,541.001099 689.156250,544.770996 
	C696.441284,547.627319 703.808289,550.235229 710.630188,554.196167 
	C726.310608,563.300598 736.253418,576.647583 740.793213,594.128540 
	C741.493530,596.825134 742.294128,599.495728 743.346313,603.238159 
	C745.926331,594.937927 746.788025,587.491028 747.571350,580.104858 
	C752.369812,534.860535 745.474182,491.375336 726.544006,450.025055 
	C710.227051,414.382965 686.430298,384.579865 654.941406,360.980286 
	C622.244568,336.475403 585.523071,321.645172 545.304932,315.687958 
	C525.188660,312.708252 504.844666,312.173523 484.566223,315.081543 
	C479.733765,315.774536 470.110413,312.429199 464.400482,308.083252 
	C466.771667,306.040375 469.788818,306.317688 472.433746,305.914093 
	C487.427612,303.625946 502.516815,302.286255 517.703125,302.763580 
	C580.670288,304.742584 635.699463,326.531830 681.882629,369.547577 
	C717.889648,403.085083 741.309143,444.293182 752.241150,492.116211 
	C771.322144,575.587830 753.698914,650.830200 699.591248,717.379883 
	C666.997681,757.468384 625.348999,783.800842 575.932617,797.838501 
	C545.013184,806.621765 513.349365,808.541260 481.348907,805.555237 
	C448.291626,802.470520 416.905273,793.772522 387.439087,778.346680 
	C345.815094,756.556091 313.037415,725.360840 288.520264,685.378906 
	C271.601898,657.788818 260.317383,627.972168 255.033615,596.120850 
	C246.563477,545.061829 252.798431,495.734955 273.716766,448.223358 
	C287.072357,417.888885 305.812958,391.495850 329.551178,368.520752 
	C330.143768,367.947235 330.782043,367.411469 331.452148,366.932495 
	C331.689392,366.762970 332.085419,366.815582 332.409729,366.772095 
	C336.752228,373.551727 336.444794,376.268188 331.209534,381.808136 
	C297.139099,417.861786 275.440521,460.220367 266.190430,509.002960 
	C262.474976,528.597229 261.382202,548.340210 262.466278,568.163818 
	C263.124023,580.191162 264.760223,592.186096 268.294250,603.819824 
	C268.869141,592.180664 269.904602,580.646729 272.979858,569.406982 
	C277.207306,553.955933 285.372925,542.028015 300.335022,534.420837 
	C317.166229,525.863403 334.335938,518.273682 352.041412,511.878418 
	C359.058228,509.343994 364.467468,505.987366 366.283020,498.161072 
	C367.105896,494.613800 369.261078,491.442261 371.831299,488.775818 
	C374.014221,486.511200 374.086670,484.185913 372.941803,481.460205 
	C371.127716,477.141266 369.849854,472.654449 369.724274,467.939087 
	C369.668640,465.851746 368.914703,464.369354 366.948486,463.684570 
	C359.485901,461.085510 355.801331,455.008209 352.884827,448.310577 
	C349.628143,440.831696 348.125153,433.054321 349.868317,424.923798 
	C351.035370,419.480316 353.273651,414.703156 359.139496,412.931580 
	C361.362274,412.260223 361.978119,410.890350 361.896729,408.851227 
	C361.876801,408.352081 361.858856,407.848236 361.901672,407.351868 
	C362.741028,397.617767 362.642120,389.372864 350.583801,385.077271 
	C341.912079,381.988098 336.630554,373.924133 337.588226,363.516052 
	C337.952667,359.555359 339.558807,356.098175 341.913208,353.030121 
	C345.698486,348.097473 348.760834,342.814575 350.888641,336.958923 
	C353.835266,328.849915 359.704651,324.023865 367.856293,321.333862 
	C378.758728,317.736145 389.548798,313.780579 400.301483,309.750244 
	C417.342041,303.363037 434.448914,306.138916 451.533722,309.198181 
	C461.915894,311.057281 472.040649,313.725830 479.817200,321.668579 
	C480.842041,322.715332 482.189575,323.628510 483.560852,324.125275 
	C496.071503,328.656738 502.851074,338.869568 509.225159,349.584229 
	C511.663727,353.683411 512.734070,357.863098 511.196777,362.441681 
	C507.612885,373.115936 503.166504,383.096954 490.890076,386.451447 
	C488.358582,387.143188 487.026550,388.769226 486.954407,391.513702 
	C486.774994,398.338226 486.509735,405.161041 486.209930,411.981506 
	C486.112549,414.197266 486.999390,415.768036 488.704132,417.104980 
	C491.329559,419.163910 492.922485,422.034851 493.085327,425.259430 
	C493.741974,438.264557 493.274170,451.038635 483.083923,461.038666 
	C481.212341,462.875336 481.202332,465.246429 481.212799,467.565674 
	C481.269745,480.168457 477.734406,491.443054 469.713287,501.376190 
	C464.834167,507.418427 466.840118,514.654785 474.021393,517.700806 
	C486.594330,523.033813 499.738647,526.903320 512.211548,532.526428 
	C522.929077,537.358154 533.301758,542.582886 540.409729,552.493103 
	C541.693604,554.283142 543.301880,554.931824 545.613159,553.956360 
	C552.976318,550.848877 560.474670,548.058472 567.807190,544.883057 
	C572.661133,542.781006 576.651489,539.561523 578.479126,533.927246 
M300.999573,630.988586 
	C300.999573,630.988586 300.974945,630.951355 301.179413,631.621948 
	C305.609924,639.903381 311.517731,647.217224 317.707275,654.093750 
	C333.078735,671.171570 351.639099,684.501221 370.729858,697.098450 
	C373.082336,698.650818 374.511688,698.084290 376.057281,695.842773 
	C378.805511,691.857117 381.145996,687.641968 383.681946,683.539307 
	C386.040527,679.723633 384.893219,677.552124 381.530792,675.439880 
	C377.724579,673.048828 374.067230,670.418579 370.371490,667.854309 
	C349.280121,653.219727 327.951263,638.973938 304.792236,627.719666 
	C302.935760,626.817505 301.165802,625.488586 298.820068,625.954590 
	C298.893005,628.146973 299.410278,629.830994 300.999573,630.988586 
M675.171631,680.155945 
	C657.188904,687.124817 638.798157,692.038574 619.273621,691.047852 
	C615.048828,690.833435 614.229614,693.213745 614.369019,696.707825 
	C614.674133,704.355530 615.021057,712.005310 615.097412,719.656738 
	C615.133423,723.268127 616.681763,724.760376 620.161316,724.898804 
	C635.394470,725.505066 650.423828,724.711548 664.963135,719.453308 
	C680.264587,713.919434 683.917175,708.832275 683.817017,692.481323 
	C683.805786,690.649963 683.858337,688.812561 683.729614,686.988647 
	C683.436768,682.837830 684.463440,678.587341 683.137451,674.203857 
	C680.890259,675.828308 678.820312,676.959656 677.372925,679.494446 
	C676.882080,679.674072 676.391174,679.853760 675.171631,680.155945 
M403.292358,464.810333 
	C404.294739,464.161011 405.297089,463.511658 407.037506,462.767395 
	C408.648224,462.354706 410.238434,461.729706 411.873749,461.571716 
	C415.799927,461.192230 418.250641,460.174164 417.746307,455.221954 
	C417.420227,452.020325 419.449829,449.290741 423.369446,449.133392 
	C424.877472,454.043335 432.533051,459.402130 437.503021,458.742096 
	C442.740051,458.046539 447.677582,456.100555 444.700989,448.482727 
	C442.757782,443.509552 441.663757,438.267059 441.010071,432.993713 
	C440.034515,425.123352 441.235260,417.642731 448.810852,413.433289 
	C456.171814,409.343048 463.817810,409.877106 471.053406,414.458160 
	C472.392151,415.305756 473.308197,417.011017 475.650360,416.687897 
	C476.228851,414.611664 475.839813,412.588989 475.120514,410.537201 
	C473.347961,405.480804 469.186493,403.108643 464.639374,401.245209 
	C456.186920,397.781281 447.186096,397.286591 438.237183,396.614471 
	C422.076752,395.400818 406.364990,397.446838 391.297028,403.545349 
	C388.645782,404.618439 385.734924,405.527405 385.091187,409.290924 
	C384.087860,415.157043 382.968414,421.015442 381.764648,426.851685 
	C380.807983,431.489777 380.740875,436.576599 381.593536,441.222900 
	C382.102844,443.998047 383.711853,446.583099 382.972809,449.625275 
	C381.811066,454.407471 384.771484,458.704498 386.598267,462.077118 
	C388.960266,466.437958 392.938843,470.505981 396.921875,474.419159 
	C398.027374,470.773895 399.735229,467.593109 403.292358,464.810333 
M514.729187,603.471741 
	C516.890930,588.783264 516.963745,573.897217 518.917664,559.093262 
	C524.544434,571.393738 524.003540,584.604492 524.596130,598.770020 
	C527.533386,595.776428 528.003967,592.885254 529.363220,590.527100 
	C530.664978,588.268799 530.331360,584.953125 533.601074,583.672302 
	C534.672852,586.396790 534.160767,588.851868 533.763062,591.289978 
	C532.851990,596.875549 531.707520,602.388062 529.787964,607.753052 
	C528.309814,611.884399 529.418396,613.030640 533.645569,612.420593 
	C535.290222,612.183289 536.925354,611.848511 538.577515,611.700134 
	C545.197937,611.105774 551.016296,612.041016 553.268250,619.611694 
	C553.870178,621.635193 555.655029,621.588501 557.314941,621.847839 
	C568.660095,623.620361 571.339294,626.684692 571.323303,637.803101 
	C571.319946,640.146851 571.003113,643.139343 573.255737,644.095825 
	C575.742188,645.151672 578.256775,643.544067 580.286194,641.426208 
	C579.687927,640.070923 579.260315,638.808167 578.610107,637.672913 
	C566.282532,616.150024 553.669067,594.807007 543.110657,572.293945 
	C537.524475,560.382751 529.339172,550.131775 517.056030,544.234741 
	C503.079285,537.524658 488.186951,533.061646 473.864502,527.186829 
	C470.925323,525.981262 469.565521,527.177856 468.711792,529.882141 
	C467.448730,533.883057 465.729523,537.710632 462.789703,540.766541 
	C460.836090,542.797241 458.762238,545.000549 455.180054,544.274963 
	C456.095703,540.571533 459.450714,538.748901 460.419403,535.522461 
	C461.375702,532.337280 463.584961,529.235474 461.398376,525.682739 
	C453.783112,529.195251 448.049408,537.555847 448.433807,544.373413 
	C448.855591,551.854065 448.758514,551.986450 441.236511,552.983337 
	C439.919342,553.157959 438.580475,553.186523 437.249939,553.240295 
	C421.387115,553.881714 405.645325,553.314270 390.129791,549.388000 
	C383.416595,547.689148 382.793976,548.535522 383.086639,555.646484 
	C383.258759,559.828674 383.976318,563.902832 384.941193,567.949951 
	C390.915222,593.007812 397.156036,618.009460 399.403320,643.785522 
	C399.824005,648.610840 403.722504,650.437683 408.374817,648.386475 
	C413.128571,646.290527 417.856842,646.844360 419.793793,650.901184 
	C422.391296,656.341492 426.247131,655.983765 430.970490,655.303772 
	C435.281769,654.683167 439.483398,652.896667 443.601135,653.193176 
	C444.890472,655.356506 441.910095,655.514526 442.975128,657.567261 
	C453.942383,659.178101 464.886047,664.096069 477.303162,660.592651 
	C474.360565,655.916626 472.546570,651.413513 476.987030,647.530518 
	C482.171082,642.997253 486.037292,647.327332 489.735474,650.346985 
	C495.097626,646.991760 494.306793,642.357605 493.892090,637.377075 
	C491.455719,608.114807 486.951965,579.239136 478.798492,550.983643 
	C478.320007,549.325439 477.246826,547.571594 478.555450,545.769104 
	C481.351532,547.350159 481.521729,547.605774 483.082275,551.084717 
	C488.495911,563.153503 491.968842,575.793457 494.353485,588.771729 
	C496.668335,601.369934 498.843262,613.987244 500.281006,626.721313 
	C500.502106,628.679321 500.817657,631.838745 503.365204,630.209595 
	C507.287292,627.701477 511.623108,624.821472 512.630432,619.693787 
	C513.621765,614.647949 514.028259,609.487305 514.729187,603.471741 
M328.226746,549.195068 
	C335.818481,554.563904 340.940308,562.131165 346.485687,570.506592 
	C346.758759,566.188660 343.954407,563.244812 344.876251,559.603699 
	C347.236481,560.661621 348.088135,562.557129 349.067017,564.213013 
	C352.976868,570.826965 356.014923,577.823547 358.520691,585.109131 
	C361.920288,594.993408 362.343781,605.366699 364.090149,615.519409 
	C364.574738,618.336670 365.669647,620.562439 368.089417,622.096985 
	C374.430084,626.117981 380.425812,630.613098 386.296906,635.284302 
	C387.437347,636.191711 388.579071,637.311584 390.508820,636.697510 
	C391.522583,634.974731 391.308044,633.122620 391.003967,631.073669 
	C388.269196,612.645630 384.458771,594.442871 380.102234,576.335510 
	C378.240479,568.597534 375.800507,560.940247 375.640015,552.861511 
	C375.576569,549.667297 375.787445,546.609009 377.370605,543.671021 
	C379.211945,540.253967 382.492249,540.387268 386.946686,540.277100 
	C378.091187,534.980957 371.092499,529.539001 366.517487,521.779907 
	C364.038971,517.576477 361.359833,517.036926 357.162445,518.871338 
	C338.463074,527.043701 318.630005,532.155701 301.603668,544.757751 
	C291.931885,551.916321 285.260315,559.453796 282.175751,570.613464 
	C275.445953,594.961182 278.139221,619.541626 281.073303,643.991638 
	C282.272522,653.985107 288.224518,662.544128 292.834595,671.392395 
	C294.346832,674.294800 295.571930,677.435364 298.577240,679.968445 
	C304.555695,674.835144 310.781555,670.291748 318.418823,667.776062 
	C316.552673,663.748291 313.702362,661.609009 311.489868,658.970581 
	C302.490143,648.238220 293.221985,637.661926 289.002106,623.887207 
	C286.988861,617.315491 289.543518,614.674194 296.303772,616.330017 
	C299.198578,617.039001 302.031860,618.092834 304.793671,619.231262 
	C310.336273,621.516052 315.793945,624.006287 321.325104,626.319824 
	C322.639008,626.869263 324.540771,628.280090 325.462524,626.935120 
	C328.948669,621.848328 334.885620,621.956787 339.920563,619.911621 
	C336.909882,615.235229 330.860046,614.514771 327.773041,609.083008 
	C337.302185,610.279785 344.654999,615.277283 353.290100,618.509766 
	C351.862701,613.821350 349.284698,610.825195 346.478943,607.978760 
	C337.438080,598.806885 327.030060,591.265747 317.016449,583.252441 
	C315.608459,582.125732 313.548553,581.415833 313.420258,578.425537 
	C326.218109,581.768555 336.386017,589.223206 347.191193,595.681458 
	C344.534973,585.005249 339.952362,575.441956 334.462036,566.339905 
	C328.942017,557.188538 321.777710,549.533508 312.067505,544.329041 
	C318.406250,542.460632 322.992310,545.716675 328.226746,549.195068 
M627.835815,437.656464 
	C614.270325,427.530823 601.445923,416.744843 593.831970,401.054321 
	C591.965576,397.208160 589.906433,399.170502 588.355530,401.493744 
	C583.082642,409.392456 575.643799,414.528290 567.187927,418.441193 
	C563.867126,419.977844 560.462402,421.418640 557.372559,423.346466 
	C553.853088,425.542358 551.292847,428.660828 550.210754,433.331482 
	C554.545044,433.649689 557.894592,431.538605 561.578003,431.998749 
	C574.033203,433.554718 581.815796,444.798157 578.601318,456.971466 
	C577.455444,461.310913 575.780151,465.509125 574.587952,469.838318 
	C573.763672,472.831207 574.117188,476.271881 577.856689,476.268982 
	C583.206238,476.264832 589.131042,476.780365 592.918091,471.251678 
	C595.479980,472.195465 595.645020,474.360107 595.483887,476.565582 
	C595.320007,478.807251 593.575439,479.436707 591.714478,479.952454 
	C588.992432,480.706848 586.336487,481.717468 583.593933,482.375549 
	C578.819031,483.521301 574.225098,483.025024 570.498657,479.560028 
	C566.764832,476.088165 567.403015,471.769653 568.825500,467.476837 
	C569.558289,465.265228 570.552734,463.129608 571.143250,460.884521 
	C571.746887,458.589386 573.011597,456.213470 571.505798,453.862030 
	C570.946777,453.794769 570.527039,453.605072 570.323730,453.740448 
	C566.345093,456.390594 562.444641,458.600037 558.794800,453.213806 
	C558.112061,452.206207 557.014648,452.649933 556.065247,453.073151 
	C554.536682,453.754486 553.035522,453.819733 552.200623,452.122589 
	C551.398682,450.492432 552.481689,449.236786 553.542419,448.161102 
	C555.219849,446.460175 557.328247,445.342499 559.607788,444.837708 
	C562.604126,444.174194 565.679688,443.868103 569.589905,443.276978 
	C566.371582,438.969482 562.556458,437.924530 558.363892,438.627197 
	C554.774902,439.228699 550.617615,440.176544 550.347290,444.790283 
	C549.822327,453.748962 548.981018,462.808533 549.751709,471.697906 
	C551.192383,488.314423 558.509277,502.620850 569.568176,515.022156 
	C576.482239,522.775452 584.768616,526.743164 595.389221,524.344971 
	C603.179016,522.585999 610.127197,519.150818 616.287903,514.115112 
	C626.032898,506.149567 633.010559,496.139923 638.094543,484.692047 
	C638.974792,482.709778 639.273254,479.592194 642.268860,479.711731 
	C647.045044,479.902283 650.666504,478.517151 653.193909,474.274139 
	C655.501038,470.401062 658.068542,466.658966 658.646423,462.067322 
	C658.886047,460.163483 659.268494,458.084564 657.426392,456.125916 
	C655.981567,458.455017 654.441467,460.327087 654.689270,463.331909 
	C654.964417,466.668304 652.868652,469.293671 650.779907,471.716339 
	C649.974609,472.650452 648.886536,473.193207 647.694397,472.364594 
	C646.705444,471.677216 646.697571,470.571167 647.243774,469.688416 
	C649.784790,465.581970 647.795410,460.989227 649.630127,455.494568 
	C642.205994,459.551819 640.035461,454.783508 637.724854,450.353607 
	C635.312622,445.728760 632.357971,441.537476 627.835815,437.656464 
M678.417480,605.040222 
	C681.142639,593.532410 685.376709,582.776245 694.066345,574.328552 
	C695.854980,572.589661 697.602478,570.431946 701.183289,570.874878 
	C686.780029,592.309082 679.812500,614.791138 686.949280,639.968201 
	C689.041138,636.042358 688.450195,631.435669 690.540588,627.295654 
	C692.423828,629.063843 691.935730,630.996094 691.966919,632.755371 
	C692.078857,639.083313 691.889099,645.423767 692.216980,651.738586 
	C692.542786,658.015991 696.064819,661.602112 700.516785,660.379028 
	C708.698242,658.131531 716.972961,656.148499 724.803101,652.751648 
	C726.679688,651.937683 728.465210,651.126404 729.362427,649.134766 
	C734.820679,637.018005 739.688904,624.826355 735.253601,611.151001 
	C734.486694,608.786377 734.184082,606.274109 733.609070,603.843750 
	C730.214111,589.494324 725.016968,576.107788 713.026306,566.526550 
	C706.210083,561.079895 698.554321,557.120605 690.417053,553.965942 
	C679.389526,549.690979 679.892273,549.957153 672.526001,558.891418 
	C666.290100,566.454773 663.183960,574.770630 662.307800,584.268982 
	C661.880432,588.902832 661.059204,593.500671 660.641479,598.135132 
	C659.626404,609.396912 658.367371,620.649048 658.430237,631.977783 
	C658.443848,634.430054 658.322205,637.448059 661.026733,638.531738 
	C666.943787,640.902954 673.041199,642.824219 680.079895,645.283936 
	C673.659485,631.713684 674.465027,618.810059 678.417480,605.040222 
M448.694611,747.065247 
	C447.160889,746.224670 446.016998,744.898376 445.502869,743.338989 
	C443.806427,738.193420 439.885345,735.335327 435.504639,732.705627 
	C427.941315,728.165649 420.519073,723.391113 413.019714,718.743896 
	C407.683380,715.437073 402.317596,712.177795 396.223846,708.443054 
	C394.193115,720.904602 392.092041,732.572144 388.665741,744.161011 
	C394.195679,745.518799 398.938812,744.032898 403.662201,743.609802 
	C413.419891,742.735779 423.289764,742.040100 432.429565,738.064270 
	C435.789551,736.602722 438.878571,736.141296 440.542480,739.726624 
	C442.436462,743.807800 438.704315,745.293640 435.964020,746.608521 
	C431.151886,748.917725 425.969635,750.219177 420.756989,751.358093 
	C415.991974,752.399170 411.246185,753.528442 406.491943,754.618835 
	C408.851593,755.351929 410.978180,754.990845 413.110870,754.950012 
	C415.267517,754.908569 417.559357,754.161011 419.972656,755.412964 
	C417.606476,758.101929 414.630127,758.270264 412.028961,759.101074 
	C403.930450,761.687866 404.231873,761.616577 404.068481,770.005920 
	C403.964935,775.325073 407.669769,776.212708 411.121063,777.631836 
	C435.328552,787.585999 460.520233,793.604065 486.594910,795.511902 
	C496.869141,796.263611 507.234863,795.789124 517.559082,795.810364 
	C519.363098,795.814087 521.687073,795.864990 521.429504,793.158936 
	C520.537292,783.784424 519.450378,774.428589 518.361328,764.360901 
	C511.584473,767.613342 505.660065,771.648071 497.342102,770.980408 
	C502.684784,765.953918 509.421356,764.625122 513.051941,759.284729 
	C512.661133,758.854614 512.573425,758.666565 512.443359,758.630371 
	C511.809235,758.453674 511.171356,758.247192 510.521301,758.177551 
	C497.083649,756.738403 485.229431,752.505737 477.578827,740.286011 
	C475.832794,737.497131 473.739075,737.799683 471.777924,740.703003 
	C466.085236,749.130432 458.599945,751.290894 448.694611,747.065247 
M413.281464,662.410034 
	C402.549622,660.195984 394.082184,654.213257 386.871674,646.286743 
	C382.549530,641.535339 377.916351,637.372437 371.616425,635.426208 
	C369.180237,634.673462 367.307953,633.035400 365.547028,631.185120 
	C359.689178,625.030212 341.253235,623.995850 334.453827,629.367859 
	C334.366272,629.437073 334.410980,629.673645 334.298248,630.722534 
	C347.897217,631.862427 362.076233,632.004272 373.238678,643.918518 
	C367.130219,644.506348 363.349091,641.158081 359.109039,639.428894 
	C352.963348,636.922485 349.925934,636.769836 345.565369,639.133850 
	C351.961884,645.943298 362.560699,642.782715 369.692047,648.968811 
	C366.507172,651.464722 363.311371,648.823242 359.712433,649.941956 
	C380.674896,663.858276 399.640350,679.087769 420.720703,691.364014 
	C435.504211,699.973267 450.953674,707.685608 463.964417,719.121338 
	C471.048981,725.348267 479.548157,728.673889 488.628845,730.527405 
	C497.439667,732.325928 502.891174,729.616638 506.343536,721.446655 
	C512.217590,707.545776 511.089294,694.095947 502.485352,681.582581 
	C498.908936,676.381165 494.174957,671.979187 487.649231,671.476135 
	C479.804718,670.871399 471.878021,671.333130 463.476746,671.333130 
	C466.369568,674.630554 468.745728,677.711975 469.774261,682.334778 
	C466.761627,681.296021 466.179352,679.122620 465.085175,677.395813 
	C463.672272,675.166077 462.919800,671.983093 460.347229,671.151489 
	C453.516083,668.943359 446.515686,667.224060 439.193848,666.575928 
	C439.402588,670.128784 442.514984,672.127319 441.896332,675.544617 
	C437.350159,673.092957 438.110870,665.436707 431.581665,665.395447 
	C430.902649,667.306702 433.228729,668.408936 431.451721,670.455078 
	C428.789948,665.690674 424.523163,663.988159 419.468903,663.679993 
	C417.660553,663.569824 415.881897,662.972961 413.281464,662.410034 
M412.501862,355.631012 
	C418.592926,354.371246 424.776917,354.437012 430.921112,354.721405 
	C434.836639,354.902618 436.933990,353.667664 437.164520,349.646149 
	C437.249786,348.158691 437.421631,346.657806 437.745087,345.205627 
	C438.982880,339.648407 438.321472,333.879700 439.051147,327.659576 
	C441.388611,329.410492 441.729370,331.280518 442.145966,332.980591 
	C443.496033,338.490051 444.268616,344.077637 443.643372,349.771393 
	C443.347290,352.467468 443.744232,354.615387 446.713470,355.795349 
	C459.939117,361.051117 463.917450,359.355194 468.928223,345.980560 
	C469.743164,343.805359 470.233398,341.510468 470.950470,339.295776 
	C471.279968,338.278076 471.292786,336.870148 473.201996,336.985382 
	C476.442749,341.254395 473.208221,346.287292 474.370636,350.585693 
	C475.923645,351.887085 476.862762,349.375946 478.169556,350.364990 
	C479.106506,352.811096 475.890228,355.147003 477.812439,357.800079 
	C482.791321,353.336243 484.623383,346.546112 491.343353,341.876190 
	C492.357849,352.187866 485.948730,358.595886 482.543396,366.805756 
	C490.158295,366.400024 492.890259,358.700562 499.231445,357.910339 
	C499.973114,360.710114 498.649048,362.526764 497.259125,364.122345 
	C494.858643,366.877899 492.201904,369.408630 489.702118,372.079987 
	C488.432953,373.436279 485.651306,374.543823 487.214111,376.781189 
	C488.780884,379.024200 491.153229,377.541656 493.020630,376.454712 
	C497.968384,373.574799 499.715790,368.327515 502.234558,363.684448 
	C504.323944,359.832794 503.906891,356.215210 501.505341,352.412170 
	C496.026917,343.736633 490.319031,335.540405 480.153198,331.581970 
	C477.310455,330.475067 474.906250,328.074768 472.508850,326.024628 
	C466.740570,321.091919 459.912262,318.669556 452.617096,317.340637 
	C447.057526,316.327850 441.494141,315.147186 435.878967,314.668854 
	C424.939087,313.736969 414.134766,313.272278 403.298981,316.970764 
	C391.647675,320.947540 380.499817,326.295319 368.544281,329.430115 
	C365.094635,330.334656 362.299011,332.708466 360.649017,335.968262 
	C356.826843,343.519592 353.844391,351.525818 348.059479,357.972473 
	C346.241394,359.998535 346.807465,361.955383 349.057434,363.393860 
	C350.929413,364.590668 352.639984,366.210754 355.154053,366.258667 
	C355.529968,363.108307 352.036774,361.076996 353.683899,357.715668 
	C361.022369,359.469574 365.373016,366.723816 373.168549,367.915833 
	C368.628693,361.878510 360.622894,358.264282 359.779388,348.533356 
	C366.888947,351.674744 370.244110,358.575256 377.637634,360.481964 
	C375.106079,352.337189 370.956848,345.207367 372.098358,336.175568 
	C375.215912,338.225067 376.173859,340.597473 377.412079,342.707062 
	C380.278137,347.590149 383.010223,352.551849 385.871124,357.438080 
	C386.777985,358.986969 387.636230,360.672729 389.957672,360.559937 
	C397.329407,360.201782 400.269073,357.009521 399.657990,349.722626 
	C399.421967,346.908112 398.883759,344.120117 398.569397,341.310425 
	C398.451843,340.259705 397.923859,338.940308 399.808136,338.393646 
	C402.555206,342.532776 404.486450,347.123383 406.220306,351.769836 
	C407.225098,354.462463 408.608093,356.096252 412.501862,355.631012 
M652.921143,380.575562 
	C641.792603,368.288513 627.953125,362.096680 611.473389,359.920685 
	C597.670898,358.098175 585.003906,360.605743 572.439148,365.439850 
	C570.816833,366.063995 569.222778,367.377869 568.181885,368.789734 
	C563.827148,374.696411 558.190247,378.884216 551.826477,382.415955 
	C545.699280,385.816376 541.182861,399.118713 543.402344,405.912323 
	C548.501648,401.631836 545.147827,394.825836 547.526794,390.107758 
	C549.864075,389.527283 549.781189,392.087189 550.393127,391.986389 
	C559.931213,388.077606 562.058716,378.452698 568.506592,371.894928 
	C569.887512,375.991486 566.497131,378.726593 567.891663,382.131042 
	C577.928406,379.512573 587.933960,378.013763 598.088867,380.113373 
	C609.522278,382.477325 621.298645,390.133118 623.106506,396.809418 
	C614.495117,392.661499 606.718262,387.710205 597.648499,386.153656 
	C588.390320,384.564758 579.222229,384.146545 570.143127,389.161499 
	C599.540344,386.691467 622.034790,397.980774 639.282166,420.708099 
	C643.107605,425.748993 646.963623,430.766632 650.808289,435.792938 
	C652.502075,438.007263 654.394104,439.719940 658.717407,437.999359 
	C651.271545,417.547546 639.691711,400.162872 622.615906,386.030304 
	C625.698181,384.492279 627.398926,385.494171 628.920593,386.318481 
	C635.595764,389.934296 641.501892,394.572540 645.764709,400.910217 
	C649.478882,406.432129 652.753052,412.248901 656.269409,417.905701 
	C657.279907,419.531433 657.793640,421.668427 660.229370,422.190216 
	C663.105164,420.151550 661.665100,415.429108 666.743774,412.763885 
	C666.027405,428.188782 664.336060,442.594757 667.019531,457.017334 
	C679.833374,447.330017 683.748352,433.545532 678.496155,422.216217 
	C674.367126,413.309998 669.674072,404.659851 665.075134,395.978851 
	C662.089783,390.343689 658.054443,385.460144 652.921143,380.575562 
M632.014893,509.465240 
	C627.690002,515.866516 622.208862,521.249634 616.423584,526.242188 
	C610.579102,531.285889 603.937805,535.758118 596.055420,535.985779 
	C587.348572,536.237244 587.799744,537.785583 588.523254,545.934021 
	C588.846436,549.573547 589.447510,553.195190 589.296448,556.854797 
	C589.205688,559.053101 590.114746,561.572754 587.664368,563.377319 
	C583.820923,561.920288 585.114990,556.637146 581.645630,554.920776 
	C572.423889,566.458191 578.632263,580.252930 593.832153,582.718689 
	C608.256470,585.058594 620.720032,580.740662 632.082153,572.116638 
	C637.314758,568.145020 641.124756,563.439087 642.024902,556.648682 
	C642.743408,551.228333 643.665771,545.815430 644.874695,540.484802 
	C646.175232,534.750366 645.731323,529.497009 643.239502,524.041138 
	C640.759094,518.610229 639.559692,512.676208 639.607544,506.581665 
	C639.619568,505.049805 640.199280,503.175507 637.967590,502.128662 
	C635.293457,503.653290 634.385010,506.734039 632.014893,509.465240 
M644.497437,644.205933 
	C636.401794,642.709412 628.223999,643.259155 620.081543,643.371826 
	C606.479309,643.559875 593.291443,645.991394 580.776306,651.518250 
	C576.027161,653.615540 571.551819,656.190796 567.834229,659.867188 
	C562.713806,664.930664 563.068787,669.476379 569.119995,673.398987 
	C574.888794,677.138428 581.222534,678.173218 587.700073,675.452759 
	C596.752869,671.650818 605.676270,667.541870 614.696045,663.659302 
	C616.599121,662.840210 618.767395,661.220276 620.748291,662.954285 
	C622.847412,664.791748 621.808594,667.356384 621.127136,669.531433 
	C619.806702,673.746216 618.243713,677.884949 616.598938,682.574829 
	C623.057007,683.396362 628.882202,683.089478 634.635498,682.684204 
	C649.081116,681.666321 662.913635,678.327820 675.290527,670.396973 
	C683.942261,664.853271 684.000732,659.568054 675.619080,653.526794 
	C672.617004,651.362976 669.301636,649.812683 665.834412,648.608459 
	C659.207703,646.307068 652.366760,644.956726 644.497437,644.205933 
M548.773010,758.440491 
	C546.375977,759.046265 547.751709,759.986694 548.717651,760.474182 
	C552.280273,762.272095 555.867554,764.037903 559.535217,765.606018 
	C563.367981,767.244751 567.304138,768.641846 571.195068,770.144531 
	C571.060608,770.571350 570.926147,770.998169 570.791687,771.424988 
	C560.976990,771.659973 551.936462,768.085327 542.454468,764.449036 
	C539.336365,774.348938 537.727234,784.019531 536.186584,793.812256 
	C562.570374,795.569458 630.933044,769.344238 646.273926,751.931641 
	C620.398254,756.542969 595.058777,757.533752 572.189514,740.838379 
	C567.375000,747.041321 560.022888,749.039368 552.726929,752.139099 
	C558.868042,756.271301 566.093079,755.169189 572.903564,758.857971 
	C564.318542,761.365295 556.873474,758.973816 548.773010,758.440491 
M424.195770,389.606445 
	C441.276672,389.260986 458.166901,390.040741 473.848694,397.988647 
	C476.769287,399.468872 477.905060,398.048737 477.970062,395.286652 
	C478.064148,391.290558 477.807709,387.275879 478.092438,383.297150 
	C478.501221,377.585449 476.171234,373.664246 471.101532,371.259918 
	C468.397919,369.977692 465.727295,368.571014 462.914368,367.583374 
	C449.016052,362.703583 434.607574,361.550201 420.042603,362.462341 
	C403.265503,363.513000 387.638245,368.171661 374.039551,378.496490 
	C372.658081,379.545349 370.823303,380.337433 371.756165,383.046631 
	C374.682373,381.274536 377.318268,379.573547 380.051483,378.046753 
	C384.477020,375.574677 385.759857,375.362518 389.756165,376.399567 
	C382.557220,379.868744 376.040985,383.372345 371.588989,389.559631 
	C376.776062,387.861542 380.872253,383.429047 388.076385,384.264099 
	C381.612762,388.661499 375.001556,391.050201 370.041229,397.698914 
	C376.169403,396.360291 379.457855,391.352936 385.483368,392.244019 
	C381.194061,397.276703 373.511322,397.839874 371.606659,404.835114 
	C387.700134,395.556366 404.832916,390.354736 424.195770,389.606445 
M543.427795,686.169922 
	C536.416016,666.592896 533.627380,664.828552 513.106750,666.972412 
	C512.279846,667.058838 511.444061,667.063599 510.618500,667.158997 
	C507.606079,667.507141 504.418121,667.204407 501.411224,669.323059 
	C502.719910,670.707031 503.717743,671.783081 504.737640,672.837769 
	C519.130127,687.721313 522.029358,712.962830 511.328064,730.672852 
	C506.710236,738.315063 500.358734,742.606323 490.997040,740.813354 
	C490.424316,740.703674 489.684357,740.294861 489.291321,741.796387 
	C495.584564,745.660095 502.331055,747.164490 509.549225,744.804260 
	C517.334167,742.258789 524.604736,738.619995 531.047729,733.437195 
	C532.747314,732.070068 534.313171,730.205994 537.346985,730.204468 
	C535.395691,737.385193 529.315552,740.286438 523.530579,744.938171 
	C526.078125,744.688110 527.439575,744.782715 528.648926,744.398621 
	C536.245667,741.985718 546.161621,725.924744 544.490173,717.990723 
	C543.676270,714.127197 543.956482,710.822083 545.678284,707.429810 
	C546.855713,705.110168 546.909668,702.595276 546.421204,700.107483 
	C545.557251,695.706909 544.575195,691.329529 543.427795,686.169922 
M613.504089,610.073975 
	C601.517639,609.910583 589.536499,609.693054 577.677917,607.623413 
	C576.063049,607.341553 574.110718,606.857056 573.174500,608.672485 
	C572.346558,610.277893 573.371643,611.879639 574.210083,613.330444 
	C578.625061,620.970093 583.081970,628.585876 587.439575,636.258057 
	C588.827026,638.700867 590.271179,639.790344 593.420715,638.988647 
	C610.922974,634.533386 628.729126,635.070068 646.526611,636.438843 
	C649.668640,636.680542 650.778625,635.822083 650.758057,632.751648 
	C650.720215,627.089905 650.733215,621.419312 651.015198,615.766846 
	C651.221008,611.642883 649.552490,610.107300 645.483826,610.153687 
	C635.158142,610.271362 624.829529,610.137146 613.504089,610.073975 
M378.132111,741.591064 
	C383.572662,730.936035 385.928558,719.436157 387.341583,707.692139 
	C387.611206,705.450928 387.129333,703.121582 384.975159,702.067627 
	C382.717163,700.962952 381.830383,703.350708 380.759827,704.632507 
	C377.967682,707.975586 374.901001,708.621277 371.133453,706.317139 
	C366.211090,703.306763 361.216583,700.414368 356.407654,697.562805 
	C354.272156,698.749512 353.865967,700.599854 353.190063,702.261719 
	C349.658875,710.943726 347.816040,720.012512 346.708282,729.295288 
	C345.749756,737.327271 346.975586,740.121521 354.275208,743.516479 
	C356.962921,744.766479 359.835663,746.089294 362.717224,746.350281 
	C368.106689,746.838745 374.232300,748.943970 378.132111,741.591064 
M337.525848,727.175110 
	C339.437469,716.149353 342.038483,705.337830 347.167725,695.277344 
	C348.078552,693.490845 348.930817,691.541565 346.567566,690.011108 
	C344.524078,688.687805 342.547943,687.593140 340.227020,689.542358 
	C338.316406,691.146973 336.198700,692.510559 334.333618,694.162598 
	C330.164734,697.855408 326.096161,701.661499 321.986755,705.421448 
	C323.819153,695.894653 330.222412,689.492615 336.569824,683.283508 
	C328.677765,673.258484 324.414124,672.401001 314.228241,678.293091 
	C311.322784,679.973755 308.760162,682.048645 306.264740,684.280884 
	C303.569916,686.691406 303.193756,688.860352 305.418915,691.961609 
	C314.176819,704.167236 323.515808,715.862549 334.311249,726.343323 
	C335.086975,727.096497 335.722321,728.350342 337.525848,727.175110 
M631.627441,582.181152 
	C628.366760,583.847961 625.249878,585.933533 621.821289,587.111572 
	C603.696777,593.338806 586.232849,595.237183 572.187683,578.265137 
	C572.020386,578.062988 571.579712,578.087158 570.775513,577.877808 
	C567.462769,581.811584 566.582703,586.959595 565.018250,591.759399 
	C563.256653,597.163696 564.497620,599.338806 570.026855,599.992371 
	C589.396301,602.281677 608.839050,603.307800 628.350647,603.033142 
	C631.469238,602.989197 632.896240,601.397217 633.453918,598.652222 
	C634.380249,594.092163 635.222351,589.515015 636.138855,584.952942 
	C636.857117,581.377808 635.294250,580.714478 631.627441,582.181152 
M475.753479,452.235382 
	C476.311523,442.985962 473.700226,433.658783 476.507690,424.450806 
	C477.097717,422.515717 475.939117,421.590485 474.055176,420.886749 
	C467.093384,418.286102 459.945007,418.927582 452.849579,419.568787 
	C449.857422,419.839233 447.911072,421.998413 447.285980,425.181671 
	C445.923676,432.119049 447.134583,438.732361 449.722107,445.146820 
	C451.400024,449.306244 453.528473,453.308502 452.719330,458.039093 
	C452.454895,459.584961 453.331024,460.654236 454.631775,461.204498 
	C460.086121,463.511810 464.894043,466.548981 466.724121,472.211395 
	C472.462921,471.035675 474.002502,467.446289 474.517944,463.064728 
	C474.906250,459.763519 475.313538,456.464539 475.753479,452.235382 
M517.971924,641.185730 
	C516.923157,641.421936 516.081970,642.762878 514.248108,641.392334 
	C517.518372,636.177612 521.926392,632.045044 526.664612,628.222046 
	C531.385742,624.413025 537.402710,623.224976 543.999512,620.943176 
	C539.615845,619.360291 539.618225,619.372925 537.512268,619.767944 
	C528.384399,621.479675 520.842468,625.899109 514.221985,632.422546 
	C506.665100,639.868652 502.279633,649.283020 496.346313,657.948792 
	C499.425751,659.514343 501.881805,658.760498 504.299591,658.399109 
	C511.703522,657.292419 519.074097,655.822815 526.605408,656.018738 
	C529.499878,656.094055 531.649475,654.750732 533.847778,653.159180 
	C541.294250,647.767944 549.592041,644.627136 558.802551,643.991272 
	C559.887146,643.916443 561.218384,644.310486 562.080994,641.713745 
	C546.727539,636.810852 534.848938,647.552795 521.395813,650.303345 
	C531.824402,638.366821 544.659485,631.759460 560.876892,632.080627 
	C555.671143,627.921631 549.951660,629.192627 544.541382,629.775391 
	C534.831665,630.821350 526.890442,636.379272 517.971924,641.185730 
M607.155579,696.823181 
	C606.807922,689.008484 609.548889,681.729797 611.886230,674.166321 
	C610.591614,674.166321 610.050293,674.021118 609.633972,674.187805 
	C601.633179,677.391418 593.634888,680.602173 585.665710,683.883362 
	C583.441040,684.799194 583.300476,686.836975 583.310730,688.919006 
	C583.337830,694.397034 583.304810,699.875427 583.303589,705.353638 
	C583.300354,719.502502 583.302063,719.502502 597.181030,715.844849 
	C606.112793,713.490967 606.729431,712.728943 606.971924,703.733582 
	C607.025574,701.742249 607.073792,699.750732 607.155579,696.823181 
M644.083801,742.592712 
	C645.714050,742.265686 647.343079,741.932129 648.974792,741.612610 
	C664.414185,738.588623 677.869446,729.545105 684.051758,717.663025 
	C679.113770,722.721313 673.564941,725.577820 667.483521,727.632202 
	C653.459656,732.369751 638.842712,733.550415 624.280945,735.127319 
	C618.133118,735.793091 612.484985,734.695312 606.985168,731.671936 
	C602.633728,729.279846 597.923096,727.439453 593.203430,725.856323 
	C590.254028,724.867004 586.946472,723.667725 583.782288,725.865417 
	C584.628479,728.265259 586.644714,728.942139 588.284912,729.952698 
	C595.231140,734.232483 602.335693,738.264221 609.173523,742.708008 
	C613.509888,745.526123 618.026062,746.285583 622.982849,745.567261 
	C629.728394,744.589783 636.479126,743.648132 644.083801,742.592712 
M422.738037,545.136841 
	C426.828278,546.303772 430.996643,545.737915 435.134064,545.636353 
	C437.953491,545.567139 439.716949,544.396606 439.975952,541.168335 
	C440.433167,535.468750 442.963837,530.668274 447.149689,526.748596 
	C447.860229,526.083252 448.720917,525.431396 448.253387,523.995422 
	C419.207336,532.210999 398.388336,519.568420 381.623871,496.951935 
	C378.155701,503.608765 378.447754,505.286530 383.730530,509.649780 
	C388.637970,513.703003 394.077209,517.033325 399.785950,519.705627 
	C410.348267,524.649841 418.935913,531.107361 421.343994,543.364563 
	C421.433014,543.817749 421.862610,544.203979 422.738037,545.136841 
M657.240479,562.805298 
	C659.050171,548.241455 658.147949,542.210999 653.724548,539.896179 
	C651.493591,541.986633 652.398926,544.918762 651.897156,547.414062 
	C648.495667,564.328064 645.323547,581.288025 641.982300,598.214417 
	C641.464722,600.836487 641.165588,603.144409 644.783264,602.873169 
	C647.755432,602.650146 652.258484,605.430054 652.655029,599.261841 
	C653.422852,587.320129 655.498962,575.534973 657.240479,562.805298 
M390.534760,542.005798 
	C395.810394,544.211914 401.380157,544.840759 407.019226,544.952698 
	C411.762512,545.046875 412.900909,543.215149 411.008362,538.757324 
	C408.990814,534.005066 404.969818,531.301392 400.630035,529.128479 
	C390.624298,524.118713 381.085022,518.481873 373.231964,510.346436 
	C372.967499,510.072479 372.359375,510.130249 370.802795,509.793640 
	C371.814484,525.439148 384.479034,531.700806 393.578094,540.246582 
	C392.801086,541.751038 391.590057,541.228882 390.534760,542.005798 
M422.793671,494.473328 
	C426.746704,491.630249 423.001160,489.790985 421.856232,487.665588 
	C421.228668,486.500549 420.124298,485.447296 420.982513,484.048523 
	C421.819824,482.683807 423.306061,482.812714 424.594818,483.108948 
	C429.377563,484.208252 434.220001,483.660370 439.035980,483.741119 
	C442.904266,483.806000 445.536316,484.320923 442.838013,489.176422 
	C441.364349,491.828186 442.858215,494.112732 445.756592,493.871796 
	C452.494934,493.311646 456.236481,488.291229 455.846405,481.340057 
	C455.683380,478.434296 454.717468,476.779022 451.519379,477.852570 
	C438.266357,482.301361 425.276031,481.190125 412.508728,475.969299 
	C409.732849,474.834198 408.364746,476.070831 407.653473,478.477356 
	C406.801178,481.360840 407.037689,484.898438 409.074005,486.467987 
	C412.300629,488.955017 414.280975,492.375153 416.951355,495.121643 
	C418.877136,494.950043 420.312561,492.833984 422.793671,494.473328 
M575.757263,709.282959 
	C575.755554,702.457153 575.740479,695.631287 575.760071,688.805542 
	C575.766052,686.717590 575.603149,684.791626 573.251343,683.902771 
	C570.807739,682.979309 568.391541,681.983337 565.876465,680.984619 
	C563.757690,686.428650 570.792664,684.685669 570.944275,688.122620 
	C569.494141,689.806885 567.326477,687.950989 565.686707,689.359863 
	C565.686707,695.428711 565.265930,701.670654 565.815063,707.826050 
	C566.284302,713.085388 570.263184,715.869324 575.750061,715.568115 
	C575.750061,713.808716 575.750061,712.005920 575.757263,709.282959 
M556.558655,678.046509 
	C556.446899,677.056702 556.326599,676.067749 556.224731,675.076965 
	C555.471252,667.749756 549.318115,664.933228 542.286926,669.245605 
	C547.823669,679.369629 551.177856,690.298889 551.754028,701.915894 
	C555.951965,701.626770 556.826050,699.407532 556.782288,696.390503 
	C556.697998,690.580139 556.665710,684.769043 556.558655,678.046509 
M708.157349,686.006165 
	C715.498779,679.910950 718.195435,671.069336 722.631592,663.256287 
	C722.323425,662.922302 722.015320,662.588257 721.707153,662.254272 
	C715.028870,664.252014 708.350586,666.249817 701.159241,668.401001 
	C703.560120,674.505676 705.726440,680.013916 708.157349,686.006165 
M367.630981,423.907837 
	C365.781952,422.000671 363.908630,419.440002 360.952362,420.635468 
	C358.094086,421.791321 357.345093,424.871704 357.152191,427.727966 
	C356.951843,430.694489 356.855682,433.735779 357.279083,436.662598 
	C358.151550,442.694031 360.699097,448.098022 364.623291,452.768372 
	C365.888123,454.273682 367.494080,455.838898 369.729309,455.173767 
	C372.320770,454.402618 371.711334,452.028137 371.702942,450.117706 
	C371.681763,445.303192 371.421051,440.486633 371.510498,435.675629 
	C371.587799,431.519165 370.461945,427.835022 367.630981,423.907837 
M560.645203,738.396729 
	C562.044556,737.652039 563.878967,737.678467 564.987793,735.842773 
	C560.663513,732.847717 556.114868,730.457397 550.733154,728.414185 
	C549.879211,733.107849 547.246582,736.688354 545.872009,741.026123 
	C550.987366,740.978333 555.413147,739.599731 560.645203,738.396729 
M698.039856,685.326599 
	C696.681702,681.512695 695.323486,677.698792 693.965271,673.884888 
	C695.026733,683.393066 692.259827,693.301208 696.701416,702.778076 
	C701.201233,699.483154 702.703186,696.181091 700.399048,691.635193 
	C699.507812,689.876953 699.005371,687.921631 698.039856,685.326599 
M561.030029,568.510559 
	C559.716370,572.033081 556.017151,575.030518 557.844543,579.244446 
	C558.467896,579.466675 559.091187,579.688965 559.714478,579.911194 
	C563.006348,572.521912 566.298157,565.132568 569.589966,557.743286 
	C565.435242,560.267029 563.628235,564.220093 561.030029,568.510559 
M559.729431,654.769958 
	C560.833618,654.485901 562.106812,654.366760 561.797485,652.688782 
	C556.627563,650.460205 545.385071,653.365845 540.924377,658.297302 
	C544.243713,659.608887 547.174500,658.754150 550.005737,657.447388 
	C552.884399,656.118713 555.794556,655.002747 559.729431,654.769958 
M385.400421,762.327393 
	C384.500549,762.539307 383.429688,761.921326 382.235321,763.404236 
	C386.902252,765.428711 390.880127,768.477966 395.851593,769.658142 
	C397.448090,763.240356 396.845428,762.383850 391.117310,762.302551 
	C389.471069,762.279114 387.824127,762.303040 385.400421,762.327393 
M396.324402,692.827881 
	C396.088257,695.414490 397.260132,697.126892 399.808533,697.338684 
	C401.656036,697.492310 402.862732,696.046631 403.365662,694.370911 
	C403.952118,692.417114 402.583282,691.262390 401.140839,690.354309 
	C398.847290,688.910278 397.418457,689.977051 396.324402,692.827881 
M439.641663,723.610352 
	C442.178650,723.440430 443.742462,722.235046 443.560608,719.546387 
	C443.446960,717.866943 442.246735,716.882202 440.683655,716.514954 
	C438.765259,716.064270 437.394257,717.040955 436.703461,718.711975 
	C435.761932,720.989258 436.817444,722.531799 439.641663,723.610352 
M568.569458,725.391541 
	C567.983093,726.126587 567.744690,727.116943 568.638550,727.510498 
	C573.018494,729.438599 576.382996,732.950073 580.739929,735.041016 
	C578.801697,732.604919 576.296997,730.665344 575.263977,727.612488 
	C574.205078,724.482910 572.101929,723.548706 568.569458,725.391541 
M358.260712,379.678314 
	C357.214050,374.583313 352.161560,374.567474 349.014587,372.126099 
	C350.431519,376.423065 353.615326,378.613586 358.260712,379.678314 
M556.060364,560.340637 
	C553.802490,557.829956 551.707275,559.614563 550.201721,561.033936 
	C548.284912,562.840942 549.548035,564.598938 551.348450,566.024048 
	C553.767639,565.057800 554.643250,562.815857 556.060364,560.340637 
M482.837677,436.374878 
	C482.454468,438.864136 482.365356,441.302002 484.132507,444.673126 
	C484.930908,440.265533 486.592041,437.159973 485.088989,433.843536 
	C483.307037,433.635681 483.273682,434.783264 482.837677,436.374878 
M668.602600,550.866577 
	C670.977600,546.765686 670.702271,546.304321 665.842224,546.241699 
	C665.118164,551.037842 665.118164,551.037842 668.602600,550.866577 
M559.203735,718.774658 
	C558.264709,719.649414 556.744995,720.421570 558.093079,721.968262 
	C559.060303,723.077881 560.276855,722.529114 561.250122,721.830261 
	C562.290955,721.082947 563.807800,720.338440 563.110596,718.734497 
	C562.319336,716.914124 560.928345,717.863525 559.203735,718.774658 
z"/>
<path fill="#000000" opacity="1.000000" stroke="none" 
	d="
M291.522949,307.430481 
	C283.946899,294.849121 276.441895,282.650085 269.232300,270.278839 
	C267.288757,266.943817 264.986603,264.919006 261.128540,264.597931 
	C258.098663,264.345825 255.587234,263.173431 254.914993,259.829987 
	C254.288391,256.713562 256.683624,255.338028 258.709473,253.973389 
	C266.857483,248.484848 275.077850,243.103745 283.273163,237.685471 
	C285.605988,236.143112 287.982697,234.958771 290.522522,237.262268 
	C293.111023,239.609940 292.266113,242.068527 290.516479,244.364105 
	C288.037323,247.616852 288.396423,250.676300 290.407959,254.046875 
	C294.288513,260.549255 297.935760,267.190857 302.397766,275.037354 
	C304.647736,262.151459 306.652588,250.755569 308.616241,239.352600 
	C309.018127,237.019089 307.573395,236.003174 305.557129,235.619232 
	C303.085358,235.148560 301.099518,234.243835 300.834717,231.338455 
	C300.577606,228.517456 302.366608,227.064346 304.479919,225.911728 
	C311.494873,222.085648 318.535126,218.305649 325.583374,214.541107 
	C327.422729,213.558685 329.368256,212.898514 331.047455,214.796768 
	C332.759033,216.731644 333.521698,219.249573 331.692169,221.163498 
	C321.832336,231.478409 323.388275,245.259933 320.268768,257.617859 
	C319.588531,260.312561 320.468048,261.965637 322.836517,263.329376 
	C337.121246,271.554474 351.354919,279.868256 365.604614,288.154144 
	C367.381744,289.187469 369.156342,289.528442 371.305237,289.207520 
	C374.709991,288.699036 377.826508,289.900818 378.951172,293.362823 
	C380.068451,296.802063 377.347656,298.477356 374.737244,299.785248 
	C366.695404,303.814392 358.763733,308.037079 351.065308,312.697083 
	C348.904175,314.005249 346.560944,315.228699 344.087006,313.489410 
	C341.555237,311.709503 341.150787,309.139404 342.122162,306.369690 
	C342.688690,304.754272 342.685791,303.393890 341.142914,302.438934 
	C331.695251,296.591431 322.229126,290.773804 312.830597,284.984070 
	C310.177307,287.399017 310.451172,289.395782 311.792206,291.655884 
	C315.020630,297.097046 318.154297,302.594757 321.298035,308.085785 
	C323.230072,311.460388 325.707794,313.876740 329.963776,313.771332 
	C332.532043,313.707703 334.475525,314.859436 335.309631,317.426910 
	C336.227844,320.253326 334.401764,321.808136 332.435913,323.169159 
	C324.769562,328.476868 317.094635,333.773193 309.365479,338.988586 
	C307.105103,340.513855 304.641052,341.692322 302.036499,339.533264 
	C299.413239,337.358582 299.318115,334.807770 300.859619,331.945679 
	C302.515472,328.871307 302.113342,325.837769 300.428223,322.901428 
	C297.527283,317.846405 294.613434,312.798798 291.522949,307.430481 
z"/>
<path fill="#000000" opacity="1.000000" stroke="none" 
	d="
M603.180420,272.958771 
	C602.801880,276.000427 604.199890,277.751526 606.038330,279.369049 
	C607.805420,280.923706 608.679321,282.829926 607.463074,285.150848 
	C606.234314,287.495697 604.133667,288.674377 601.653442,288.072723 
	C591.948242,285.718628 582.229492,283.373016 572.654175,280.554016 
	C568.754456,279.405914 568.175049,273.867859 571.860596,271.821411 
	C577.490234,268.695587 579.267639,263.712860 580.676025,258.091248 
	C585.083252,240.499786 589.677673,222.955200 594.093384,205.365814 
	C595.154175,201.140518 595.840393,196.789261 593.026794,192.852875 
	C591.550964,190.787979 590.862732,188.547607 592.220703,186.334381 
	C593.798218,183.763367 596.528503,184.005630 598.977661,184.601303 
	C614.647583,188.412369 630.608826,191.119888 645.826294,196.648834 
	C648.771240,197.718811 651.571960,199.310959 654.250549,200.967224 
	C665.725464,208.062439 670.404663,218.511261 668.035522,231.639832 
	C665.668213,244.758041 657.682068,253.331573 644.854736,257.187286 
	C637.742126,259.325195 630.666809,258.262878 623.669434,256.492432 
	C619.008667,255.313217 614.397827,253.936874 609.299438,252.519424 
	C606.115356,259.025452 604.679993,265.794128 603.180420,272.958771 
M620.258240,210.732803 
	C618.124695,218.778015 615.982666,226.820969 613.864014,234.870102 
	C613.357849,236.793167 612.469788,239.043259 614.916382,240.150085 
	C620.327209,242.597885 626.002502,244.172501 631.788879,241.625137 
	C638.435852,238.698853 643.336853,228.135712 642.638733,218.975861 
	C642.115906,212.116119 637.923401,207.841782 629.332642,205.410263 
	C622.781189,203.555939 622.517334,203.691025 620.258240,210.732803 
z"/>
<path fill="#000000" opacity="1.000000" stroke="none" 
	d="
M557.202209,278.022339 
	C545.349976,277.670441 533.962463,276.010986 522.463867,276.194946 
	C520.382812,276.228241 519.116455,274.849823 518.668213,272.845734 
	C518.189148,270.703796 518.645935,268.862457 520.669983,267.673309 
	C523.259949,266.151733 526.605713,264.739227 526.358948,261.354523 
	C526.059753,257.249420 524.398193,253.294357 522.295288,249.668015 
	C521.543701,248.371933 520.073181,248.336166 518.718384,248.333725 
	C512.388550,248.322388 506.056610,248.421158 499.729492,248.287933 
	C493.501007,248.156815 492.669434,252.833130 491.601105,257.206055 
	C490.611572,261.256348 490.183746,265.223816 495.241425,267.234070 
	C497.544830,268.149597 499.317780,269.709473 498.619659,272.578278 
	C497.968872,275.252686 496.006073,276.225098 493.405609,276.325256 
	C486.254456,276.600616 479.106171,276.950867 471.954498,277.209930 
	C469.180725,277.310425 466.494720,276.916534 465.332947,273.884796 
	C464.136780,270.763275 466.103790,268.886505 468.287811,267.166473 
	C471.665619,264.506317 473.967621,261.059235 475.248322,257.005402 
	C481.314240,237.805176 487.267090,218.569153 493.365234,199.379257 
	C494.875305,194.627335 494.360535,190.593292 490.546875,187.124420 
	C488.857819,185.588043 487.902954,183.609924 488.827789,181.278046 
	C489.785828,178.862366 491.723816,177.903229 494.278442,177.591324 
	C503.740784,176.435959 513.242432,176.940125 522.726013,176.774719 
	C526.596619,176.707214 527.418579,179.748123 528.311218,182.733536 
	C535.793640,207.757843 543.359375,232.757278 550.813232,257.790039 
	C552.089722,262.077179 554.114502,265.623810 557.700073,268.472321 
	C561.648560,271.609100 561.448730,274.124878 557.202209,278.022339 
M502.333527,234.852020 
	C507.206604,234.561890 512.154358,235.323517 517.525330,234.213638 
	C514.322144,224.214432 511.289764,214.748260 507.816193,203.904907 
	C505.200775,213.375504 502.993896,221.366379 500.787445,229.357361 
	C500.610687,229.997543 500.402527,230.631454 500.268585,231.280579 
	C499.974670,232.704819 499.211761,234.323380 502.333527,234.852020 
z"/>
<path fill="#000000" opacity="1.000000" stroke="none" 
	d="
M719.911133,296.840881 
	C715.150452,299.463898 712.174316,298.008423 711.764526,293.245239 
	C711.262878,287.415161 706.069214,281.646637 700.524658,280.558594 
	C698.395935,280.140808 697.415588,281.383606 696.563904,282.841736 
	C692.783569,289.314148 689.096130,295.841034 685.292603,302.299622 
	C684.073486,304.369690 684.664001,305.649200 686.555176,306.810547 
	C691.951355,310.124420 697.302124,313.527985 703.159851,315.985168 
	C706.392700,317.341278 709.684753,317.118439 712.826843,315.551178 
	C715.956360,313.990143 719.030823,312.318756 722.160400,310.757996 
	C724.632751,309.524933 726.723267,310.379913 728.427551,312.266388 
	C730.144592,314.166809 729.972961,316.272095 728.477356,318.189270 
	C723.664307,324.358826 718.843811,330.524750 713.897949,336.587494 
	C712.020874,338.888519 709.883179,338.870758 707.363953,337.013123 
	C690.835144,324.825256 673.330139,314.225189 654.918884,305.116089 
	C652.399414,303.869568 649.582825,302.586212 650.185547,298.935699 
	C650.781921,295.323395 653.474915,294.046082 656.688782,293.881775 
	C659.955383,293.714722 661.907837,291.885681 663.338440,289.304901 
	C673.353088,271.239624 683.351440,253.165207 693.295593,235.061081 
	C695.072754,231.825668 695.503235,228.399078 693.410278,225.079056 
	C691.786072,222.502548 691.623840,220.060501 693.901489,217.842941 
	C696.138733,215.664658 698.609802,216.614578 700.850525,217.772675 
	C715.658264,225.426147 730.158020,233.619034 744.074890,242.813217 
	C747.967102,245.384583 751.832397,247.996735 755.736694,250.549454 
	C757.973816,252.012177 758.947998,253.945679 757.946838,256.514130 
	C755.891052,261.788025 753.836426,267.066315 751.592896,272.261444 
	C750.465698,274.871704 748.555237,276.907562 745.344849,275.758850 
	C742.227661,274.643494 740.463989,272.638031 741.293518,268.856323 
	C742.510376,263.308929 740.351135,258.779419 736.366394,254.938370 
	C732.359314,251.075821 727.630798,248.303833 722.821106,245.620529 
	C719.759399,243.912415 717.599121,244.419540 715.931152,247.693069 
	C713.058411,253.331360 710.010742,258.883026 706.929932,264.411652 
	C705.660522,266.689636 705.600708,268.302490 708.225647,269.670227 
	C713.760376,272.553955 718.832642,277.000305 725.833801,273.734131 
	C727.442871,272.983459 729.177795,273.653046 730.358643,275.026245 
	C731.895874,276.813751 731.521240,278.809967 730.401245,280.593628 
	C727.036438,285.952118 723.567993,291.245544 719.911133,296.840881 
z"/>
<path fill="#000000" opacity="1.000000" stroke="none" 
	d="
M380.591003,244.287079 
	C377.756378,234.816574 374.977386,225.748154 372.271179,216.658066 
	C371.159180,212.922821 369.296661,210.052902 365.231079,208.987778 
	C362.538269,208.282303 360.926331,206.387222 361.043060,203.506775 
	C361.158875,200.649155 363.297913,199.778397 365.695953,199.099152 
	C375.301331,196.378403 384.876526,193.551407 394.472473,190.797028 
	C397.064789,190.052902 399.711365,189.303604 401.791168,191.951691 
	C403.941772,194.689896 402.494354,196.992752 400.791321,199.142853 
	C397.797974,202.921814 397.827271,207.019165 398.961578,211.440338 
	C403.795959,230.283127 408.573456,249.140823 413.265625,268.019440 
	C413.937805,270.723938 415.151001,272.164398 418.045471,271.865417 
	C422.031403,271.453613 426.016510,270.967438 429.767883,269.501434 
	C436.663757,266.806610 440.381409,261.741058 440.696350,254.282455 
	C440.801849,251.783691 440.788330,249.256790 441.837860,246.921600 
	C442.928772,244.494415 444.953552,243.570816 447.518066,243.726318 
	C449.883606,243.869766 451.130768,245.331497 451.510101,247.510574 
	C453.078491,256.520050 454.600220,265.539001 454.307739,274.740875 
	C454.185547,278.583008 451.580505,279.710510 448.357300,280.212524 
	C431.723938,282.803009 415.330627,286.470276 399.182129,291.227112 
	C396.791840,291.931213 394.437134,292.788513 392.011414,293.330597 
	C389.660919,293.855835 387.802856,292.955475 386.560974,290.790955 
	C385.418945,288.800507 385.424438,286.699005 386.989380,285.239655 
	C391.522919,281.012177 390.158447,276.424927 388.591858,271.485260 
	C385.776001,262.606537 383.296204,253.621231 380.591003,244.287079 
z"/>
<path fill="#000000" opacity="1.000000" stroke="none" 
	d="
M540.663208,851.040527 
	C541.529602,852.077209 542.214111,852.812256 542.773804,853.632324 
	C543.025024,854.000427 543.026672,854.538879 543.140869,854.997253 
	C541.821106,856.822937 539.530518,857.147156 538.169861,856.599365 
	C533.703857,854.800964 529.825378,856.707397 525.686890,857.580139 
	C520.726196,858.626160 515.912170,858.055847 512.656738,853.580444 
	C509.586700,849.359802 510.326202,845.093262 513.474670,841.188721 
	C514.903015,839.417358 514.166504,837.870605 513.528625,836.097656 
	C511.633606,830.830933 512.937988,826.856750 517.154175,824.467590 
	C521.671753,821.907654 527.956604,822.577637 530.968689,826.114929 
	C534.217163,829.929749 533.522339,833.680603 530.578491,837.403625 
	C528.683899,839.799744 528.787964,839.882019 531.561768,842.051758 
	C532.582458,841.976562 532.948853,841.165344 533.176331,840.401917 
	C533.994812,837.654968 535.941101,837.355835 538.290161,837.971497 
	C540.921265,838.661133 540.662048,840.564880 540.478027,842.725525 
	C540.251587,845.385498 537.925903,848.095337 540.663208,851.040527 
M519.509583,847.088745 
	C520.642944,851.923767 523.462341,851.270508 527.565796,849.239258 
	C524.577698,847.830139 523.808838,843.020996 519.509583,847.088745 
z"/>
<path fill="#000000" opacity="1.000000" stroke="none" 
	d="
M710.879761,753.138428 
	C712.499023,754.734192 713.789551,756.458435 713.706116,758.144348 
	C713.387085,764.589600 717.393494,766.206909 722.574829,766.945923 
	C723.658630,767.100464 724.828613,767.568420 725.386841,768.754272 
	C722.367249,774.984436 720.030884,776.032349 713.796082,773.969604 
	C712.693359,773.604736 711.569458,773.301880 710.475220,772.914124 
	C709.012451,772.395752 707.906982,772.825012 706.986755,774.022888 
	C705.896606,775.441772 706.671814,776.493591 707.610413,777.520142 
	C708.283020,778.255798 708.988770,778.961182 709.675293,779.684265 
	C711.373962,781.473083 712.981873,783.213196 710.051575,785.374390 
	C707.782593,787.047729 705.912781,789.246094 703.016113,785.926208 
	C697.337646,779.418030 691.406982,773.126892 685.491333,766.829895 
	C683.025024,764.204651 683.054443,762.087830 685.956421,759.809021 
	C688.952820,757.456055 691.557312,754.572937 694.670227,752.405884 
	C700.559204,748.306396 704.736267,748.582520 710.879761,753.138428 
M702.907227,758.525085 
	C697.839050,758.562378 693.821045,762.092407 695.823425,764.824341 
	C697.301758,766.841370 698.890442,770.270874 702.350952,767.275818 
	C705.090759,764.904480 707.636292,762.293091 702.907227,758.525085 
z"/>
<path fill="#000000" opacity="1.000000" stroke="none" 
	d="
M430.167358,826.752075 
	C429.223724,828.557068 428.747375,830.634888 427.509796,831.303406 
	C421.598297,834.496765 421.970764,839.093994 423.966461,844.307190 
	C424.316681,845.221985 424.403137,846.260925 423.771545,847.178589 
	C417.649841,847.868042 415.101532,846.147217 413.910156,840.513000 
	C413.738220,839.699829 413.665527,838.857483 413.414276,838.070923 
	C412.834015,836.254517 413.002747,833.706787 410.357910,833.506836 
	C407.540527,833.293823 407.548676,835.881653 407.047455,837.688965 
	C406.193848,840.766785 404.694092,842.238647 401.283081,841.072693 
	C397.997253,839.949524 397.518372,838.132874 398.579193,834.955688 
	C401.156738,827.236206 403.484070,819.428955 405.731171,811.605164 
	C406.805939,807.863098 408.604279,806.857422 412.297333,808.474060 
	C415.627808,809.932129 419.258850,810.685852 422.685364,811.945862 
	C429.791656,814.559143 431.996735,818.848755 430.167358,826.752075 
M416.651794,818.224548 
	C412.798035,816.551575 412.740326,819.875854 411.783569,821.956177 
	C410.689911,824.334167 411.784943,825.659485 413.986664,826.552856 
	C416.879639,827.726807 419.689880,828.093628 421.249695,824.796936 
	C423.046234,821.000000 420.636871,819.334839 416.651794,818.224548 
z"/>
<path fill="#000000" opacity="1.000000" stroke="none" 
	d="
M656.968872,815.179077 
	C659.760620,819.240295 658.862671,821.666565 654.620178,823.470154 
	C650.031677,825.420898 645.633301,827.829956 641.200928,830.133301 
	C638.527466,831.522644 636.710083,831.449036 635.286804,828.275513 
	C631.744019,820.376343 627.977356,812.575378 624.181885,804.792847 
	C622.833618,802.028137 623.096008,800.226868 626.112610,798.838806 
	C631.103577,796.542419 636.048035,794.117493 640.860474,791.470947 
	C643.855896,789.823608 645.387207,790.832031 646.767761,793.515930 
	C648.203430,796.307007 646.644714,797.462158 644.481201,798.500183 
	C641.778076,799.797058 639.096985,801.140015 636.410645,802.471741 
	C634.678406,803.330505 633.877014,804.510742 634.827698,806.491821 
	C635.835022,808.590820 637.331299,808.313110 638.987244,807.523010 
	C640.339539,806.877869 641.691650,806.229126 643.015869,805.529053 
	C648.494263,802.632874 649.034485,802.899658 650.814636,809.535095 
	C648.812683,811.902344 645.858826,812.779785 643.159180,813.961914 
	C639.619019,815.512024 639.040283,817.392822 641.875549,820.389893 
	C645.466187,819.424316 648.526550,817.407593 651.780579,815.820068 
	C653.325012,815.066589 654.764465,813.382019 656.968872,815.179077 
z"/>
<path fill="#000000" opacity="1.000000" stroke="none" 
	d="
M333.374969,764.444092 
	C334.447327,765.481018 335.550201,766.127930 335.047058,767.807190 
	C331.493958,768.797913 327.757172,769.336975 323.943329,769.320557 
	C320.229156,769.304565 318.383942,770.597290 317.995972,774.800476 
	C317.488464,780.298035 317.805847,786.026184 315.569946,791.342041 
	C308.931519,788.460205 308.510284,787.333618 308.614594,779.449097 
	C308.650482,776.736023 311.247406,772.964905 307.810394,771.352783 
	C304.451538,769.777344 302.741455,773.542480 300.839020,775.729858 
	C299.010864,777.831787 297.345123,777.070923 295.723511,775.562134 
	C294.163330,774.110474 291.939453,772.570435 293.999420,770.203857 
	C300.106842,763.187439 306.327423,756.265991 312.642944,749.436157 
	C314.833710,747.066956 316.507050,749.393860 318.151672,750.627258 
	C320.040375,752.043701 320.642792,753.637817 318.791443,755.618835 
	C317.105713,757.422607 315.534088,759.333130 313.227539,761.983276 
	C317.271545,761.767334 320.570312,761.982727 323.684937,761.325378 
	C327.542694,760.511230 330.544464,761.349304 333.374969,764.444092 
z"/>
<path fill="#000000" opacity="1.000000" stroke="none" 
	d="
M382.620880,833.509888 
	C379.192017,832.554749 377.314758,830.987305 377.622498,827.409485 
	C378.059753,822.326721 373.256592,822.309875 370.435211,820.412048 
	C368.102844,818.843201 366.276428,819.621399 364.267029,821.403687 
	C361.172913,824.148193 359.359283,823.646240 354.680359,819.116272 
	C359.468231,814.593689 364.230988,810.065063 369.029236,805.574341 
	C371.695801,803.078613 374.498871,800.724609 377.096985,798.161255 
	C379.329468,795.958557 381.464783,795.089600 384.627625,796.571350 
	C387.763794,798.040710 388.562225,800.204468 388.301849,803.340332 
	C387.547668,812.423157 386.912659,821.515747 386.179321,830.600403 
	C386.029510,832.455933 385.857269,834.505920 382.620880,833.509888 
M378.629181,814.272034 
	C379.266357,812.338623 380.090088,810.414185 379.177246,808.125427 
	C377.038025,809.412598 375.363007,810.620850 374.659790,812.786865 
	C375.407196,814.362427 376.585602,814.973755 378.629181,814.272034 
z"/>
<path fill="#000000" opacity="1.000000" stroke="none" 
	d="
M617.191528,825.711426 
	C614.260681,831.285767 608.688477,832.252075 604.192261,834.251953 
	C603.306213,836.195740 604.144897,837.613220 604.688293,838.894653 
	C606.178772,842.409119 604.816040,844.025330 601.473633,845.123108 
	C598.103638,846.229858 597.060486,844.588684 596.234436,841.814331 
	C593.819946,833.704712 591.313538,825.621277 588.735596,817.561951 
	C587.875977,814.874512 588.234558,813.121277 591.252380,812.319702 
	C595.098755,811.298157 598.836243,809.795837 602.723877,809.013916 
	C613.523376,806.841553 620.369507,814.585754 617.191528,825.711426 
M599.985657,824.510376 
	C601.852539,828.629517 604.460876,826.039368 606.585754,825.022339 
	C609.102234,823.817871 609.428711,821.324585 608.476685,818.982788 
	C607.528259,816.649658 605.484314,816.304443 603.048279,816.690979 
	C598.225952,817.456177 598.132568,820.204102 599.985657,824.510376 
z"/>
<path fill="#000000" opacity="1.000000" stroke="none" 
	d="
M463.788025,829.424805 
	C465.425049,836.962158 466.967804,844.089539 468.419617,851.235352 
	C468.778442,853.001343 470.355347,855.520630 467.231903,856.087891 
	C464.700897,856.547546 461.929932,856.452576 460.467346,853.335632 
	C457.030487,846.011169 449.859802,844.916992 444.542847,850.783264 
	C441.600037,854.030212 438.927795,851.716370 435.998596,850.465332 
	C436.692352,846.526550 439.296265,843.801453 441.057526,840.693420 
	C444.167114,835.205933 447.811981,830.014465 450.784241,824.459106 
	C452.700531,820.877441 455.179321,820.000977 458.895325,820.724731 
	C462.569916,821.440369 462.846039,824.256653 463.321869,827.061401 
	C463.432831,827.715149 463.547363,828.368225 463.788025,829.424805 
M456.611053,834.551819 
	C454.159576,833.605408 453.744690,834.045837 452.623230,838.841675 
	C454.060699,839.726501 455.505219,840.302612 457.269501,839.002136 
	C457.084808,837.734253 456.897430,836.448181 456.611053,834.551819 
z"/>
<path fill="#000000" opacity="1.000000" stroke="none" 
	d="
M659.570801,780.564697 
	C664.098022,777.431458 668.380798,774.577698 672.524475,771.534485 
	C675.073669,769.662231 676.609680,770.559143 678.265625,772.783813 
	C680.027527,775.151062 679.487610,776.720825 677.072754,777.934570 
	C672.440857,780.262390 673.144714,782.975647 675.895874,786.558655 
	C679.221008,790.889160 681.901062,795.708679 685.035156,800.194397 
	C687.133728,803.198059 685.349365,804.603516 683.158264,806.184631 
	C680.688416,807.967041 679.011414,807.413208 677.452820,804.936646 
	C674.272400,799.882996 670.945374,794.921692 667.693726,789.912598 
	C666.398376,787.917053 665.063416,786.524719 662.474121,788.267639 
	C660.160706,789.824829 657.837891,792.631958 655.095764,788.480713 
	C652.145203,784.013855 656.423584,783.270386 658.446838,781.325317 
	C658.682495,781.098816 658.992310,780.949463 659.570801,780.564697 
z"/>
<path fill="#000000" opacity="1.000000" stroke="none" 
	d="
M339.735046,778.796814 
	C341.804169,776.887207 342.106598,773.144958 345.624298,773.819092 
	C349.948669,774.647766 351.202148,778.255005 348.607727,781.902832 
	C345.524780,786.237427 342.502716,790.624512 339.217621,794.802917 
	C337.024384,797.592468 337.438873,799.450134 340.371979,801.202393 
	C342.365173,802.393188 344.138947,803.950562 346.129120,805.147278 
	C348.645416,806.660278 349.125000,808.264099 347.366791,810.814026 
	C345.676422,813.265625 344.099487,813.709778 341.643341,811.917358 
	C337.347168,808.782288 332.961578,805.764404 328.534729,802.815674 
	C325.694611,800.923889 325.466034,798.880432 327.426941,796.177246 
	C331.526123,790.526489 335.500885,784.785583 339.735046,778.796814 
z"/>
<path fill="#000000" opacity="1.000000" stroke="none" 
	d="
M395.348938,792.125427 
	C389.900848,796.077820 386.777191,796.349121 383.088196,793.535095 
	C386.685272,786.668030 389.269775,786.297974 395.348938,792.125427 
z"/>
<path fill="#000000" opacity="1.000000" stroke="none" 
	d="
M403.040649,465.068024 
	C401.382111,465.140076 400.026276,466.750092 398.574249,465.479736 
	C400.543945,460.380066 407.398254,455.908447 412.888855,456.371246 
	C412.058868,459.787567 408.500336,460.241852 406.485474,462.620239 
	C405.297089,463.511658 404.294739,464.161011 403.040649,465.068024 
z"/>
<path fill="#000000" opacity="1.000000" stroke="none" 
	d="
M677.592529,679.359192 
	C680.061340,678.931885 681.468567,679.679199 679.541321,681.731812 
	C677.738098,683.652405 675.426208,685.367432 672.327148,684.761536 
	C672.177551,682.235901 674.482849,681.906250 675.704346,680.296265 
	C676.391174,679.853760 676.882080,679.674072 677.592529,679.359192 
z"/>
<path fill="#000000" opacity="1.000000" stroke="none" 
	d="
M401.507233,605.901001 
	C404.235168,601.439209 407.883820,600.578796 411.943634,602.697388 
	C415.801727,604.710693 417.158691,608.270508 415.701172,612.404785 
	C414.300568,616.377625 411.072876,617.914246 407.005737,617.416992 
	C402.218506,616.831848 400.039337,612.422485 401.507233,605.901001 
z"/>
<path fill="#000000" opacity="1.000000" stroke="none" 
	d="
M466.413330,556.063904 
	C472.305359,553.669861 476.567657,555.116760 478.209564,559.717224 
	C479.753357,564.042908 477.340759,568.701294 472.876862,569.910522 
	C469.369110,570.860718 466.545441,569.569153 464.708923,566.658569 
	C462.378235,562.964722 462.906769,559.393311 466.413330,556.063904 
z"/>
<path fill="#000000" opacity="1.000000" stroke="none" 
	d="
M485.130066,614.361877 
	C481.861725,616.815857 478.730164,617.235046 475.715546,614.921021 
	C473.011475,612.845398 472.006500,609.950073 472.704559,606.551331 
	C473.350739,603.404907 475.559204,601.757996 478.445343,601.072144 
	C481.631989,600.315002 484.442688,601.345459 486.236481,604.082764 
	C488.486694,607.516663 488.140137,610.953247 485.130066,614.361877 
z"/>
<path fill="#000000" opacity="1.000000" stroke="none" 
	d="
M406.149872,567.148193 
	C404.111145,571.546997 400.888763,573.073364 396.632874,571.940857 
	C392.664185,570.884644 391.157532,567.747375 391.200958,563.965820 
	C391.241913,560.401855 393.381348,558.123840 396.725311,557.104980 
	C402.212921,555.433167 406.606232,559.932068 406.149872,567.148193 
z"/>
<path fill="#000000" opacity="1.000000" stroke="none" 
	d="
M465.099854,547.464722 
	C461.041107,549.410950 461.041107,549.410950 457.189453,548.546936 
	C459.257172,545.901794 462.068604,544.806335 464.889709,544.647949 
	C467.989502,544.473938 466.432220,546.120911 465.099854,547.464722 
z"/>
<path fill="#000000" opacity="1.000000" stroke="none" 
	d="
M608.251099,483.078064 
	C612.502808,484.173920 612.996582,486.556000 610.069275,489.031647 
	C607.003540,491.624329 604.365234,494.579529 601.559204,497.399597 
	C591.269470,507.740997 577.441345,506.841766 568.772766,495.229584 
	C567.700256,493.792847 566.241150,493.141571 564.824158,492.320892 
	C563.238892,491.402740 562.169861,490.188721 562.795349,488.270142 
	C563.501221,486.105042 565.155701,486.576111 566.900208,486.835876 
	C578.630066,488.582581 590.364258,488.310944 602.095459,486.738342 
	C604.593811,486.403442 606.275269,484.893433 608.251099,483.078064 
M588.164795,498.021149 
	C589.435059,497.449615 591.165771,497.543640 591.609070,495.711609 
	C586.792847,493.591888 582.209229,493.842407 578.780762,496.479858 
	C581.271545,499.243805 584.344238,498.858246 588.164795,498.021149 
z"/>
<path fill="#000000" opacity="1.000000" stroke="none" 
	d="
M607.893982,455.297058 
	C603.736084,455.489380 602.750793,452.262482 601.125854,449.971985 
	C600.657593,450.016907 600.313721,449.981934 600.022034,450.088959 
	C598.182678,450.763733 596.238770,453.651886 594.460205,450.988708 
	C592.753845,448.433624 595.439941,446.781647 597.255676,445.457794 
	C603.293335,441.055756 613.804016,442.010529 619.554565,447.315063 
	C620.462463,448.152496 621.333069,448.967377 620.666138,450.269897 
	C620.012817,451.545929 618.922607,452.334381 617.409241,451.983429 
	C616.300049,451.726257 615.238342,451.264160 614.128113,450.884033 
	C612.255249,452.575073 611.196838,455.194397 607.893982,455.297058 
z"/>
<path fill="#000000" opacity="1.000000" stroke="none" 
	d="
M613.666870,431.935608 
	C617.150757,433.325348 620.778687,433.800293 622.515564,437.169403 
	C620.890991,439.652039 618.952515,438.543030 617.314270,438.236572 
	C610.365723,436.936859 603.504272,436.615784 596.687622,439.011993 
	C595.036987,439.592255 592.905762,440.383484 592.067383,437.864990 
	C591.286499,435.518890 592.829346,433.958893 594.740540,433.149353 
	C600.735657,430.609863 606.946777,430.223389 613.666870,431.935608 
z"/>
<path fill="#000000" opacity="1.000000" stroke="none" 
	d="
M591.002441,505.728302 
	C593.978699,506.580841 593.234497,507.888947 591.551208,508.653137 
	C586.837585,510.792938 582.103271,511.118134 576.427551,507.598969 
	C581.614624,505.202209 586.279419,506.423279 591.002441,505.728302 
z"/>
<path fill="#000000" opacity="1.000000" stroke="none" 
	d="
M423.931946,734.081116 
	C416.572754,736.801147 409.457977,738.593262 401.920593,738.156494 
	C401.662415,735.316833 403.706970,735.565186 404.904816,735.183899 
	C410.729767,733.329834 416.599304,731.613464 422.470978,729.910156 
	C424.241913,729.396423 426.569122,727.564514 427.702698,730.121826 
	C428.895111,732.811829 425.790375,732.937622 423.931946,734.081116 
z"/>
<path fill="#000000" opacity="1.000000" stroke="none" 
	d="
M476.679230,718.456665 
	C474.107819,717.013550 471.341858,716.520691 469.812622,714.013672 
	C473.310303,713.342590 494.032135,720.290100 497.084351,723.545715 
	C489.333832,724.377075 483.243195,721.188782 476.679230,718.456665 
z"/>
<path fill="#000000" opacity="1.000000" stroke="none" 
	d="
M458.131592,676.866943 
	C457.102692,675.182434 456.252106,673.788513 455.401489,672.394592 
	C455.735992,672.145569 456.070465,671.896545 456.404968,671.647522 
	C459.251282,674.152161 461.453979,677.166626 463.055481,681.632141 
	C460.042786,680.953186 459.561096,678.635498 458.131592,676.866943 
z"/>
<path fill="#000000" opacity="1.000000" stroke="none" 
	d="
M403.054138,330.081360 
	C406.742737,333.966278 407.708557,338.337067 407.888367,342.944458 
	C407.427887,343.134613 406.967407,343.324738 406.506927,343.514893 
	C403.718536,338.362427 400.930145,333.209930 398.015869,327.824768 
	C400.850128,327.071411 401.557220,328.962494 403.054138,330.081360 
z"/>
<path fill="#000000" opacity="1.000000" stroke="none" 
	d="
M647.891113,386.651581 
	C648.812012,390.645386 649.652466,394.271362 650.538635,398.094727 
	C644.955200,396.146912 643.161011,389.683197 646.296997,384.006470 
	C647.539551,384.272736 647.442078,385.433838 647.891113,386.651581 
z"/>
<path fill="#000000" opacity="1.000000" stroke="none" 
	d="
M676.366089,437.440918 
	C677.388916,438.365417 678.125793,439.048248 677.689514,440.561310 
	C674.577881,440.713867 672.199097,439.102295 669.123047,437.398193 
	C672.029175,435.053284 674.051636,436.111115 676.366089,437.440918 
z"/>
<path fill="#000000" opacity="1.000000" stroke="none" 
	d="
M415.361206,417.545105 
	C408.014923,416.656586 401.192688,418.523743 394.186127,418.639038 
	C395.675446,412.307251 402.040497,407.888336 409.387238,407.879669 
	C414.668671,407.873444 419.517456,409.648102 424.099762,412.112518 
	C426.276459,413.283203 428.043671,415.261749 427.214844,417.778687 
	C426.223511,420.789062 423.616058,419.074829 421.659607,418.799469 
	C419.688049,418.522034 417.748718,418.015198 415.361206,417.545105 
z"/>
<path fill="#000000" opacity="1.000000" stroke="none" 
	d="
M403.871460,428.306122 
	C402.611420,428.670166 401.692657,429.152435 400.731567,429.261414 
	C399.267670,429.427521 397.569794,429.631195 396.911224,427.812164 
	C396.351501,426.266144 397.615387,425.392395 398.581818,424.506226 
	C404.231110,419.326263 418.194855,419.379639 423.764221,424.581818 
	C424.770508,425.521759 425.755463,426.537842 425.096252,428.011505 
	C424.445221,429.466858 422.979645,429.618896 421.661987,429.347107 
	C420.231995,429.052124 418.874359,428.406250 417.518280,427.925140 
	C412.143494,433.834106 410.443176,433.868103 403.871460,428.306122 
z"/>
<path fill="#000000" opacity="1.000000" stroke="none" 
	d="
M603.201172,574.485229 
	C605.471069,569.388550 610.577637,568.529358 615.190308,565.205811 
	C614.134705,571.351196 610.320251,574.049316 603.201172,574.485229 
z"/>
<path fill="#000000" opacity="1.000000" stroke="none" 
	d="
M589.343262,656.028076 
	C595.632446,656.043030 600.938904,657.939392 605.863159,661.428955 
	C598.356750,658.625183 590.121521,662.373901 582.268982,658.688354 
	C584.277832,655.922485 587.120667,657.464233 589.343262,656.028076 
z"/>
<path fill="#000000" opacity="1.000000" stroke="none" 
	d="
M667.005249,653.771790 
	C669.393250,654.805298 671.715454,655.333191 673.181274,658.665588 
	C667.023804,657.981506 662.186279,656.134705 656.957092,653.492310 
	C660.770142,650.430176 663.660400,653.136230 667.005249,653.771790 
z"/>
<path fill="#000000" opacity="1.000000" stroke="none" 
	d="
M642.230225,651.202698 
	C637.992371,653.973267 634.302246,650.671631 630.279053,649.816956 
	C634.375427,648.168274 638.250671,649.032288 642.230225,651.202698 
z"/>
<path fill="#000000" opacity="1.000000" stroke="none" 
	d="
M576.792480,664.001221 
	C575.946350,662.883667 576.225586,662.004578 577.253601,662.097839 
	C580.634277,662.404602 584.104309,662.560730 587.553711,664.954712 
	C583.462524,667.414978 580.307922,665.175476 576.792480,664.001221 
z"/>
<path fill="#000000" opacity="1.000000" stroke="none" 
	d="
M664.891357,665.246460 
	C663.072998,664.277283 660.974060,664.212646 660.463501,661.697998 
	C664.681763,659.925110 666.832581,662.991577 669.838013,664.743225 
	C667.980347,666.638794 666.602478,665.698059 664.891357,665.246460 
z"/>
<path fill="#000000" opacity="1.000000" stroke="none" 
	d="
M650.746582,668.953674 
	C654.542419,667.140381 657.630981,667.954041 660.991516,671.444763 
	C656.774780,671.420105 653.444153,671.784302 650.746582,668.953674 
z"/>
<path fill="#000000" opacity="1.000000" stroke="none" 
	d="
M617.818481,650.523193 
	C615.125671,652.317566 612.251892,651.852844 608.562744,649.140930 
	C612.026733,647.212402 614.867432,648.504333 617.818481,650.523193 
z"/>
<path fill="#000000" opacity="1.000000" stroke="none" 
	d="
M574.835571,667.540344 
	C573.320435,665.935120 573.442566,664.771973 575.492798,665.092102 
	C577.968750,665.478760 580.569824,665.965149 582.701721,668.245422 
	C579.740173,670.670837 577.456726,668.733032 574.835571,667.540344 
z"/>
<path fill="#000000" opacity="1.000000" stroke="none" 
	d="
M472.346558,378.488617 
	C474.217163,380.400574 474.484100,381.964722 471.549469,381.189606 
	C467.161743,380.030731 463.041901,378.048187 459.468597,374.841370 
	C464.297150,373.589844 468.220825,375.780609 472.346558,378.488617 
z"/>
<path fill="#000000" opacity="1.000000" stroke="none" 
	d="
M461.602966,385.434387 
	C465.512054,382.568604 471.019470,384.278809 474.890778,389.913177 
	C469.668335,389.853271 465.876434,387.267639 461.602966,385.434387 
z"/>
<path fill="#000000" opacity="1.000000" stroke="none" 
	d="
M673.786804,703.548401 
	C676.434387,702.380066 678.537231,700.543518 682.135864,701.330383 
	C679.050964,705.584106 675.300171,706.964661 670.716248,707.482056 
	C670.731384,704.986816 672.261414,704.484680 673.786804,703.548401 
z"/>
<path fill="#000000" opacity="1.000000" stroke="none" 
	d="
M675.204224,687.287231 
	C677.007019,686.644531 678.278259,685.140625 680.787354,686.375488 
	C678.035034,690.214172 674.333557,691.411255 669.652283,692.574524 
	C670.472046,688.888794 673.064453,688.594177 675.204224,687.287231 
z"/>
<path fill="#000000" opacity="1.000000" stroke="none" 
	d="
M675.693909,709.631714 
	C675.667847,713.255676 673.285950,714.956909 668.109924,715.099548 
	C669.580872,711.777222 672.385925,710.561951 675.693909,709.631714 
z"/>
<path fill="#000000" opacity="1.000000" stroke="none" 
	d="
M680.019836,694.640991 
	C677.876099,697.103699 675.448914,698.093994 671.480835,697.628113 
	C674.414734,694.908997 676.036133,691.591370 680.019836,694.640991 
z"/>
<path fill="#000000" opacity="1.000000" stroke="none" 
	d="
M301.013947,631.005493 
	C301.332794,626.492004 303.102600,629.447449 304.111816,630.526184 
	C309.341797,636.116577 314.410217,641.858459 319.652679,647.436768 
	C330.967651,659.476746 343.477020,670.181335 356.560394,680.241089 
	C357.770477,681.171570 359.614929,681.731445 359.537842,684.876404 
	C352.911682,681.198608 346.933044,677.515259 341.509277,673.021545 
	C328.404663,662.164246 316.276825,650.328735 305.991699,636.698425 
	C304.592438,634.844116 303.019501,633.120789 301.250977,631.144104 
	C300.974945,630.951355 300.999573,630.988586 301.013947,631.005493 
z"/>
<path fill="#000000" opacity="1.000000" stroke="none" 
	d="
M372.655792,676.570007 
	C372.572540,674.907715 371.497101,673.695374 372.374237,672.351440 
	C376.224976,675.801575 377.737122,687.660522 374.545593,694.147095 
	C373.035400,687.921997 374.407684,682.218079 372.655792,676.570007 
z"/>
<path fill="#000000" opacity="1.000000" stroke="none" 
	d="
M365.798828,688.928833 
	C365.849792,687.155334 364.910828,685.715942 365.934509,683.932007 
	C368.627258,686.104675 368.313965,689.015564 368.725189,691.985229 
	C366.287018,692.261536 366.370605,690.464355 365.798828,688.928833 
z"/>
<path fill="#000000" opacity="1.000000" stroke="none" 
	d="
M463.522339,430.299255 
	C460.876862,429.766205 460.860901,432.144775 459.738098,433.168274 
	C457.667328,435.055878 455.549469,435.734375 452.945496,434.366119 
	C449.483582,432.547150 449.077301,429.007324 448.679810,425.853271 
	C448.336365,423.127930 451.197449,422.424286 453.240845,422.190277 
	C459.189941,421.509033 464.302368,423.778961 468.767487,427.551208 
	C469.776459,428.403595 470.599304,429.783691 469.278748,431.011047 
	C467.326324,432.825745 465.582214,431.178406 463.522339,430.299255 
z"/>
<path fill="#000000" opacity="1.000000" stroke="none" 
	d="
M458.867249,460.386444 
	C458.188293,459.495514 457.755371,458.841888 456.631378,457.144958 
	C461.607330,458.125519 464.591492,459.908051 467.127045,463.710876 
	C463.332611,464.210175 461.163269,462.566833 458.867249,460.386444 
z"/>
<path fill="#000000" opacity="1.000000" stroke="none" 
	d="
M570.582031,703.313110 
	C571.842163,704.179810 572.651978,704.943420 572.391235,706.589783 
	C569.444580,707.185181 567.720032,705.752014 566.411438,703.366028 
	C567.800476,701.214783 569.060364,702.648010 570.582031,703.313110 
z"/>
<path fill="#000000" opacity="1.000000" stroke="none" 
	d="
M361.688263,436.789825 
	C364.861816,431.784546 360.425537,430.737549 357.924164,428.668304 
	C358.017914,425.981293 358.934082,423.617310 361.782043,423.027069 
	C364.759521,422.409973 365.478699,425.100372 366.699463,427.067780 
	C370.137177,432.608154 370.470795,438.679260 370.033417,444.913849 
	C369.950073,446.101654 369.744720,447.374512 368.496155,447.829346 
	C366.981537,448.381104 365.768982,447.406311 365.195984,446.224396 
	C363.770081,443.283264 361.815125,440.521759 361.688263,436.789825 
z"/>
</svg>